<?xml version="1.0" encoding="utf-8"?>
<!-- Generator: Adobe Illustrator 16.0.0, SVG Export Plug-In . SVG Version: 6.00 Build 0)  -->
<!DOCTYPE svg PUBLIC "-//W3C//DTD SVG 1.1//EN" "http://www.w3.org/Graphics/SVG/1.1/DTD/svg11.dtd">
<svg version="1.1" id="Calque_1" xmlns="http://www.w3.org/2000/svg" xmlns:xlink="http://www.w3.org/1999/xlink" x="0px" y="0px"
	 width="190.5px" height="190.5px" viewBox="0 0 190.5 190.5" enable-background="new 0 0 190.5 190.5" xml:space="preserve">
<g id="Calque_1_1_">
	<path fill="#B7B7B7" d="M103.857,29.169c2.483-1.821,4.043-0.224,5.485,1.218c1.445,1.448,3.048,3.009,1.229,5.492
		c-2.139,2.824-4.764,5.953-7.748,9.197l17.336,3.41c3.254,0.643,6.42-0.318,8.469-2.402c7.332-7.446,24.178-24.519,24.729-25.042
		C167.7,6.701,185.766-1.885,189.049,1.39c3.307,3.3-5.289,21.372-19.627,35.716c-0.521,0.552-17.6,17.391-25.041,24.725
		c-2.082,2.057-3.045,5.219-2.406,8.465l3.414,17.336c3.24-2.986,6.363-5.605,9.191-7.746c2.486-1.816,4.045-0.215,5.488,1.229
		c1.445,1.445,3.047,3.002,1.225,5.484c-3.189,4.229-7.48,9.123-12.439,14.086l-0.754,0.748
		c5.453,27.635,12.586,63.909,12.898,65.489c0,0,1.117,4.707-2.604,8.431l-5.09,5.086c-0.996,1-1.564-0.082-1.564-0.082
		l-30.986-61.289c0,0-0.732-1.478-1.318-2.519c-0.598-1.039-1.631-2.084-1.631-2.084l-11.18-11.172c0,0-2.004-2.037-4.365-0.01
		c-21.6,19.231-34.736,29.348-41.98,35.5c-3.727,3.297-2.551,8.668-2.109,10.569c2.277,11.504,5.695,28.883,6.008,30.48
		c0,0,0.826,3.475-1.926,6.223l-3.699,3.707c-0.6,0.594-1.121,0.152-1.32-0.244l-17.659-35.43c-3.468,2.479-6.871,4.674-7.485,4.285
		c-0.388-0.607,1.802-4.018,4.284-7.482L0.95,133.234c-0.4-0.205-0.846-0.734-0.244-1.326l3.701-3.703
		c2.746-2.752,6.228-1.922,6.228-1.922c1.588,0.311,18.966,3.727,30.477,6.008c1.904,0.441,7.271,1.607,10.568-2.117
		c6.148-7.236,16.266-20.369,35.504-41.973c2.018-2.365-0.02-4.375-0.02-4.375L75.992,72.66c0,0-1.037-1.041-2.082-1.627
		c-1.041-0.594-2.521-1.326-2.521-1.326L10.103,38.73c0,0-1.074-0.576-0.082-1.567l5.09-5.092c3.723-3.727,8.43-2.606,8.43-2.606
		c1.582,0.31,37.853,7.453,65.493,12.894l0.742-0.748C94.738,36.642,99.631,32.363,103.857,29.169z"/>
</g>
<g id="Calque_2" display="none">
	<path display="inline" fill="#464646" d="M156.322,46.053l-23.562-2.537c-0.02-20.308-2.312-26.91-2.814-28.118
		c-4.6-12.988-16.754-13.409-17.758-13.419c-0.217-0.009-0.42-0.009-0.625-0.009c-4.801,0-8.684,1.524-11.535,4.543
		c-5.015,5.283-4.849,13.308-4.813,14.284v18.674l-4.01-0.428l-0.045-6.43c0.23-10.05-1.924-17.471-6.406-22.064
		c-4.223-4.322-9.172-4.657-10.59-4.657c-0.145,0-0.266,0.003-0.352,0.009c-0.219-0.009-0.436-0.009-0.646-0.009
		c-5.184,0-9.471,1.734-12.746,5.151c-6.926,7.236-6.66,19.535-6.625,20.667v9.162l-19.922,2.85h-0.024v119.016l86.2,26.004
		l0.136,0.041l36.129-17.549V46.053H156.322z M65.514,15.931c2.074-2.106,4.688-3.041,8.08-2.867l0.148,0.011l0.291-0.02
		c0.783,0,3.541,0.201,5.992,2.712c3.062,3.137,4.588,8.864,4.402,16.555v0.046l0.041,5.952l-7.379-0.794l-16.557,2.372v-8.419
		C60.529,31.377,60.428,21.1,65.514,15.931z M77.111,38.48l7.357,0.762l0.072,11.12l-24.012-3.311v-6.198L77.111,38.48z
		 M101.717,20.817c0-0.055-0.236-6.037,3.057-9.524c1.65-1.739,3.922-2.588,6.941-2.588c0.156,0,0.309,0.003,0.523,0.003
		c0.348,0.007,8.598,0.206,11.711,9.095l0.035,0.104c0.024,0.061,2.215,6.114,2.256,24.903l-24.533-2.642l0.016-19.201
		L101.717,20.817z M153.693,46.412l-33.543,8.861l-28.863-3.979l-0.084-11.362L153.693,46.412z M53.793,41.82v4.307L38.5,44.012
		L53.793,41.82z"/>
</g>
<g id="Calque_3" display="none">
	<path display="inline" fill="#464646" d="M159.438,124.936c0,35.578-28.772,64.615-64.352,64.615
		c-35.576,0-64.354-29.037-64.354-64.615c0-16.225,5.495-31.128,15.435-42.641l0.787-32.959c0-26.423,21.715-48.137,48.133-48.137
		c26.685,0,48.394,21.709,48.394,48.137v32.959C153.422,93.807,159.438,108.711,159.438,124.936z M50.877,129.381h18.309
		l2.359-4.445l-2.359-4.971H50.877V129.381z M74.945,141.674l-0.527-4.969l-4.182-2.875l-15.695,9.15l4.445,7.852L74.945,141.674z
		 M54.799,106.623l15.695,9.158l4.707-2.877l0.266-4.971L59.25,98.771L54.799,106.623z M67.357,67.383
		c16.744-7.842,37.143-8.109,55.719,0V49.336c0-15.435-12.82-27.729-27.99-27.729c-15.174,0-27.729,12.293-27.729,27.729V67.383z
		 M85.932,150.043l-2.617-4.707l-4.969-0.256l-9.42,15.955l7.848,4.441L85.932,150.043z M86.455,100.344l-9.156-16.217l-7.85,4.707
		l9.154,15.955l4.973-0.256L86.455,100.344z M99.531,151.098l-4.707-2.354l-4.445,2.354v18.312h9.152V151.098z M100.318,80.982H90.9
		v18.312l4.709,2.354l4.709-2.354V80.982z M111.828,145.336l-4.969,0.527l-2.877,4.445l9.154,15.434l8.108-4.451L111.828,145.336z
		 M121.51,89.355l-7.592-4.707l-9.418,15.958l2.881,4.184l4.971,0.268L121.51,89.355z M119.678,134.615l-4.186,2.879l-0.266,5.23
		l16.219,8.895l4.449-7.85L119.678,134.615z M115.756,108.455l0.258,4.971l4.188,2.877l15.959-9.158l-4.447-7.85L115.756,108.455z
		 M139.555,120.75H121.51l-2.621,4.707l2.621,4.447h18.045V120.75L139.555,120.75z"/>
</g>
<g id="Calque_4" display="none">
	<path display="inline" fill="#464646" d="M158.018,28.847c19.019,19.653,28.107,40.721,28.851,65.333
		c0.168,5.662-3.265,9.395-8.707,9.684c-5.748,0.309-9.646-3.232-9.791-9.008c-0.293-12.119-3.043-23.643-9.06-34.174
		c-13.697-24.003-34.596-36.516-62.092-38.088c-3.049-0.172-5.912-0.492-8.061-2.931c-2.75-3.128-2.98-6.721-1.51-10.378
		c1.496-3.693,4.521-5.35,8.443-5.29c17.912,0.307,34.425,5.293,49.33,15.19C150.564,22.607,155.266,26.712,158.018,28.847z
		 M95.332,38.478c-1.645-0.02-3.443,0.302-4.92,0.993c-3.826,1.771-5.631,6.265-4.602,10.748c0.902,3.953,4.393,6.68,8.779,6.736
		c10.244,0.121,19.313,3.365,26.847,10.389c8.287,7.713,12.155,17.389,12.555,28.646c0.074,2,0.824,4.274,2.004,5.877
		c2.453,3.348,6.82,4.188,10.834,2.664c3.539-1.353,5.627-4.527,5.592-8.73c-0.111-15.682-5.822-29.078-16.85-40.623
		C124.508,44.523,111.072,38.704,95.332,38.478z M147.848,178.967c3.795-4.246,8.029-8.084,12.043-12.133
		c5.937-5.99,5.988-13.258,0.086-19.211c-7.045-7.092-14.11-14.158-21.213-21.189c-5.809-5.76-13.076-5.742-18.854-0.012
		c-4.42,4.375-8.841,8.742-13.166,13.213c-0.302,0.309-0.586,0.553-0.873,0.738l-3.027,3.02c-0.834,0.543-1.676,0.533-2.774-0.061
		c-2.853-1.547-5.883-2.801-8.625-4.525c-12.795-8.029-23.52-18.383-33.008-30.041c-4.725-5.803-8.914-11.975-11.82-18.944
		c-0.479-1.156-0.494-1.996,0.156-2.875l3.016-3.027c0.146-0.191,0.316-0.393,0.523-0.594c1.324-1.277,2.643-2.566,3.947-3.863
		c3.061-3.029,6.08-6.09,9.115-9.139c6.043-6.074,6.027-13.215-0.033-19.336c-3.434-3.471-6.904-6.908-10.361-10.364
		c-3.562-3.556-7.094-7.147-10.686-10.67c-5.819-5.712-13.088-5.727-18.89-0.02c-4.433,4.361-8.721,8.876-13.225,13.161
		c-4.192,3.994-6.33,8.83-6.758,14.514C2.73,66.832,4.993,75.549,8.155,84.059c6.536,17.591,16.477,33.171,28.501,47.482
		c16.264,19.363,35.705,34.682,58.449,45.73c10.23,4.975,20.852,8.799,32.374,9.428C135.4,187.139,142.328,185.145,147.848,178.967z
		"/>
</g>
</svg>
